<?xml version="1.0" encoding="UTF-8" standalone="no"?>
<!DOCTYPE svg PUBLIC "-//W3C//DTD SVG 1.1//EN" "http://www.w3.org/Graphics/SVG/1.1/DTD/svg11.dtd">
<svg width="100%" height="100%" viewBox="0 0 5370 823" version="1.1" xmlns="http://www.w3.org/2000/svg" xmlns:xlink="http://www.w3.org/1999/xlink" xml:space="preserve" xmlns:serif="http://www.serif.com/" style="fill-rule:evenodd;clip-rule:evenodd;stroke-linejoin:round;stroke-miterlimit:1.41421;">
    <g id="ArtBoard1" transform="matrix(1.61075,0,0,1,5829.12,-1336.08)">
        <rect x="-3618.89" y="1336.08" width="3333.65" height="822.558" style="fill:none;"/>
        <g transform="matrix(2.45743,0,1.22499e-33,2.31595,859.88,-2282.73)">
            <g transform="matrix(1.91459,0,-2.18859e-34,4.16667,-1732.66,1818.22)">
                <path d="M0,-37.816L0,-16.578C0,-5.614 -6.727,0 -16.048,0C-24.946,0 -32.52,-5.402 -32.52,-16.578L-32.52,-37.816L-25.582,-37.816L-25.582,-16.578C-25.582,-9.904 -21.768,-6.355 -15.995,-6.355C-10.222,-6.355 -6.938,-10.221 -6.938,-16.578L-6.938,-37.816L0,-37.816Z" style="fill:rgb(71,78,129);fill-rule:nonzero;"/>
            </g>
            <g transform="matrix(1.91459,0,-2.18859e-34,4.16667,-1672.93,1815.13)">
                <path d="M0,-37.18L6.991,-37.18L6.991,-0.053L2.648,-0.053L2.648,0L-16.842,-25.051L-16.842,-0.053L-23.833,-0.053L-23.833,-37.127L-18.167,-37.127L0,-14.141L0,-37.18Z" style="fill:rgb(71,78,129);fill-rule:nonzero;"/>
            </g>
            <g transform="matrix(1.91459,0,-2.18859e-34,4.16667,-1628.92,1788.43)">
                <path d="M0,-24.364L-11.758,-24.364L-11.758,-30.719L18.749,-30.719L18.749,-24.364L6.991,-24.364L6.991,6.355L0,6.355L0,-24.364Z" style="fill:rgb(71,78,129);fill-rule:nonzero;"/>
            </g>
            <g transform="matrix(1.91459,0,-2.18859e-34,4.16667,-1531.97,1660.43)">
                <path d="M0,37.074L-27.753,37.074L-27.753,0L0,0L0,6.779L-20.815,6.779L-20.815,15.306L-0.742,15.306L-0.742,21.821L-20.815,21.821L-20.815,30.189L0,30.189L0,37.074Z" style="fill:rgb(71,78,129);fill-rule:nonzero;"/>
            </g>
            <g transform="matrix(1.91459,0,-2.18859e-34,4.16667,-1508.14,1787.54)">
                <path d="M0,-23.992L0,-12.128L10.646,-12.128C15.095,-12.128 17.001,-15.095 17.001,-18.06C17.001,-21.026 15.042,-23.992 10.646,-23.992L0,-23.992ZM25.846,6.568L17.531,6.568L6.727,-5.826L0,-5.826L0,6.568L-6.991,6.568L-6.991,-30.56C-1.112,-30.56 4.767,-30.507 10.646,-30.507C19.385,-30.454 23.993,-24.628 23.993,-18.219C23.993,-13.135 21.662,-7.997 14.618,-6.567L25.846,6.091L25.846,6.568Z" style="fill:rgb(71,78,129);fill-rule:nonzero;"/>
            </g>
            <g transform="matrix(1.91459,0,-2.18859e-34,4.16667,-1406.52,1815.13)">
                <path d="M0,-37.18L6.991,-37.18L6.991,-0.053L2.648,-0.053L2.648,0L-16.842,-25.051L-16.842,-0.053L-23.833,-0.053L-23.833,-37.127L-18.167,-37.127L0,-14.141L0,-37.18Z" style="fill:rgb(71,78,129);fill-rule:nonzero;"/>
            </g>
            <g transform="matrix(1.91459,0,-2.18859e-34,4.16667,-1327.93,1660.43)">
                <path d="M0,37.074L-27.753,37.074L-27.753,0L0,0L0,6.779L-20.815,6.779L-20.815,15.306L-0.742,15.306L-0.742,21.821L-20.815,21.821L-20.815,30.189L0,30.189L0,37.074Z" style="fill:rgb(71,78,129);fill-rule:nonzero;"/>
            </g>
            <g transform="matrix(1.91459,0,-2.18859e-34,4.16667,-1269.21,1660.65)">
                <path d="M0,37.074L0,22.086L-18.22,22.086L-18.22,37.074L-25.211,37.074L-25.211,0L-18.22,0L-18.22,15.624L0,15.624L0,0L6.938,0L6.938,37.074L0,37.074Z" style="fill:rgb(71,78,129);fill-rule:nonzero;"/>
            </g>
            <g transform="matrix(1.91459,0,-2.18859e-34,4.16667,-1181.49,1772.75)">
                <path d="M0,-16.736L-12.076,-0.634L-13.453,-0.634L-25.264,-16.789L-25.264,10.169L-32.255,10.169L-32.255,-26.905L-24.204,-26.905L-12.605,-10.963L-1.006,-26.905L6.991,-26.905L6.991,10.169L0,10.169L0,-16.736Z" style="fill:rgb(71,78,129);fill-rule:nonzero;"/>
            </g>
            <g transform="matrix(1.91459,0,-2.18859e-34,4.16667,-1102.59,1660.43)">
                <path d="M0,37.074L-27.753,37.074L-27.753,0L0,0L0,6.779L-20.815,6.779L-20.815,15.306L-0.742,15.306L-0.742,21.821L-20.815,21.821L-20.815,30.189L0,30.189L0,37.074Z" style="fill:rgb(71,78,129);fill-rule:nonzero;"/>
            </g>
            <g transform="matrix(1.91459,0,-2.18859e-34,4.16667,-1043.47,1815.13)">
                <path d="M0,-37.18L6.991,-37.18L6.991,-0.053L2.648,-0.053L2.648,0L-16.842,-25.051L-16.842,-0.053L-23.833,-0.053L-23.833,-37.127L-18.167,-37.127L0,-14.141L0,-37.18Z" style="fill:rgb(71,78,129);fill-rule:nonzero;"/>
            </g>
            <g transform="matrix(1.91459,0,-2.18859e-34,4.16667,-972.891,1776.29)">
                <path d="M0,-18.855C-1.271,-20.974 -4.767,-22.986 -8.791,-22.986C-13.981,-22.986 -16.471,-20.814 -16.471,-18.061C-16.471,-14.83 -12.658,-13.929 -8.209,-13.4C-0.477,-12.446 6.727,-10.434 6.727,-1.589C6.727,6.674 -0.582,10.222 -8.845,10.222C-16.418,10.222 -22.244,7.892 -24.998,1.112L-19.172,-1.906C-17.53,2.172 -13.24,3.973 -8.738,3.973C-4.343,3.973 -0.211,2.437 -0.211,-1.589C-0.211,-5.084 -3.866,-6.515 -8.791,-7.044C-16.365,-7.944 -23.356,-9.957 -23.356,-18.272C-23.356,-25.899 -15.836,-29.024 -9.003,-29.077C-3.23,-29.077 2.755,-27.435 5.562,-21.715L0,-18.855Z" style="fill:rgb(71,78,129);fill-rule:nonzero;"/>
            </g>
            <g transform="matrix(1.91459,0,-2.18859e-34,4.16667,-873.003,1660.43)">
                <path d="M0,37.074L-5.932,37.074L-10.539,25.423L-14.459,13.717L-18.325,25.528L-22.827,37.074L-28.759,37.074L-42.37,0L-34.531,0L-25.793,26.747L-16.789,0L-12.234,0L-2.966,26.747L5.509,0L13.347,0L0,37.074Z" style="fill:rgb(71,78,129);fill-rule:nonzero;"/>
            </g>
            <g transform="matrix(1.91459,0,-2.18859e-34,4.16667,-786.293,1660.43)">
                <path d="M0,37.074L-27.753,37.074L-27.753,0L0,0L0,6.779L-20.814,6.779L-20.814,15.306L-0.741,15.306L-0.741,21.821L-20.814,21.821L-20.814,30.189L0,30.189L0,37.074Z" style="fill:rgb(71,78,129);fill-rule:nonzero;"/>
            </g>
            <g transform="matrix(1.91459,0,-2.18859e-34,4.16667,-762.458,1787.54)">
                <path d="M0,-23.992L0,-12.128L10.646,-12.128C15.094,-12.128 17.001,-15.095 17.001,-18.06C17.001,-21.026 15.041,-23.992 10.646,-23.992L0,-23.992ZM25.846,6.568L17.53,6.568L6.726,-5.826L0,-5.826L0,6.568L-6.991,6.568L-6.991,-30.56C-1.112,-30.56 4.767,-30.507 10.646,-30.507C19.384,-30.454 23.992,-24.628 23.992,-18.219C23.992,-13.135 21.662,-7.997 14.617,-6.567L25.846,6.091L25.846,6.568Z" style="fill:rgb(71,78,129);fill-rule:nonzero;"/>
            </g>
            <g transform="matrix(1.91459,0,-2.18859e-34,4.16667,-685.996,1788.43)">
                <path d="M0,-24.364L-11.758,-24.364L-11.758,-30.719L18.749,-30.719L18.749,-24.364L6.991,-24.364L6.991,6.355L0,6.355L0,-24.364Z" style="fill:rgb(71,78,129);fill-rule:nonzero;"/>
            </g>
        </g>
        <g transform="matrix(-389.652,362.363,224.966,627.632,-325.342,1555.63)">
            <path d="M0.019,-0.154C0.189,-0.252 0.359,-0.35 0.529,-0.448C0.589,-0.482 0.664,-0.462 0.699,-0.403C0.796,-0.234 0.892,-0.066 0.991,0.102C1.005,0.127 1.004,0.138 0.978,0.152C0.809,0.248 0.641,0.346 0.472,0.443C0.405,0.482 0.341,0.465 0.302,0.397C0.253,0.315 0.206,0.232 0.158,0.149L0.159,0.148C0.108,0.061 0.059,-0.026 0.007,-0.113C-0.005,-0.133 -0.002,-0.143 0.018,-0.154C0.018,-0.154 0.019,-0.154 0.019,-0.154Z" style="fill:url(#_Linear1);fill-rule:nonzero;"/>
        </g>
        <g transform="matrix(2.58679,0,0,4.16667,-446.673,1683.48)">
            <path d="M0,31.82C-0.054,24.18 -0.105,16.759 -0.161,8.924C-7.011,16.745 -13.529,24.188 -20.288,31.907C-13.375,31.878 -6.868,31.849 0,31.82M-85.849,46.874C-86.056,46.687 -86.657,46.152 -86.751,46.069C-67.711,24.327 -48.666,2.579 -29.643,-19.144C-29.405,-19.142 -29.169,-19.141 -28.932,-19.139C-28.359,-16.209 -27.46,-13.299 -27.278,-10.344C-26.777,-2.221 -29.188,5.06 -34.525,11.258C-39.86,17.452 -45.286,23.568 -50.673,29.718C-51.206,30.328 -51.739,30.936 -52.708,32.043C-49.787,32.039 -47.373,31.815 -45.014,32.082C-41.415,32.488 -39.097,31.086 -36.734,28.351C-20.121,9.116 -3.313,-9.952 13.433,-29.075C13.957,-29.674 14.481,-30.273 15.463,-31.393C15.611,-10.011 15.756,10.728 15.901,31.728C20.405,31.719 24.749,31.712 29.386,31.704C29.427,36.685 29.466,41.553 29.506,46.589C25.027,46.628 20.67,46.666 16.006,46.707C16.036,52.203 16.065,57.582 16.097,63.13C10.746,63.158 5.584,63.184 0.229,63.213C0.183,57.723 0.138,52.394 0.09,46.755C-28.38,46.885 -56.699,47.014 -85.018,47.144C-85.31,47.132 -85.162,47.134 -85.563,47.125" style="fill:white;fill-rule:nonzero;"/>
        </g>
        <g transform="matrix(2.58679,0,0,4.16667,-560.092,1629.14)">
            <path d="M0,0.398C-4.289,-7.185 -9.581,-10.119 -16.071,-8.709C-22.025,-7.415 -26.232,-2.664 -26.8,3.407C-27.419,10.038 -23.937,14.777 -15.694,18.312C-19.197,22.311 -22.622,26.284 -26.156,30.155C-26.482,30.513 -27.672,30.512 -28.183,30.21C-42.097,21.961 -46.653,5.377 -40.048,-8.271C-32.169,-24.55 -12.387,-30.115 2.925,-20.305C5.682,-18.539 7.888,-15.88 10.215,-13.503C10.587,-13.123 10.572,-11.791 10.201,-11.348C6.911,-7.423 3.502,-3.601 0,0.398" style="fill:white;fill-rule:nonzero;"/>
        </g>
    </g>
    <defs>
        <linearGradient id="_Linear1" x1="0" y1="0" x2="1" y2="0" gradientUnits="userSpaceOnUse" gradientTransform="matrix(1,0,0,-1,8.88178e-16,-0.000694134)"><stop offset="0" style="stop-color:rgb(143,26,104);stop-opacity:1"/><stop offset="0.49" style="stop-color:rgb(213,20,109);stop-opacity:1"/><stop offset="0.92" style="stop-color:rgb(224,61,94);stop-opacity:1"/><stop offset="1" style="stop-color:rgb(241,96,63);stop-opacity:1"/></linearGradient>
    </defs>
</svg>
