
<svg width="86px" height="102px" viewBox="0 0 86 102" version="1.1" xmlns="http://www.w3.org/2000/svg" xmlns:xlink="http://www.w3.org/1999/xlink">
  <defs>
    <linearGradient x1="15.8708231%" y1="3.72825831%" x2="85.1651082%" y2="96.64919%" id="linearGradient-1">
      <stop stop-color="#406C94" offset="0%"></stop>
      <stop stop-color="#182B3D" offset="100%"></stop>
      <stop stop-color="#172A3C" offset="100%"></stop>
    </linearGradient>
  </defs>
  <g id="Page-2" stroke="none" stroke-width="1" fill="none" fill-rule="evenodd">
    <g id="Desktop-HD" transform="translate(-677.000000, -14.000000)">
      <g id="Logo" transform="translate(677.000000, 14.000000)">
        <path d="M0,22.2837329 C2.34878945e-12,27.23337 4.88823802e-12,56.6043615 0,60.6076735 C-2.57614452e-12,62.717332 0.63784185,69.6274624 2.8252276,73.4947188 C4.78865001,76.9660124 8.72779675,80.3839019 13.1449287,82.4722808 C17.5620606,84.5606596 49.338863,98.7574966 53.9545663,100.79562 C58.5128374,102.808384 70.4741182,102.518883 75.708553,98.2337689 C80.9429878,93.9486549 86,87.5477641 86,79.5566986 C86,71.3980511 86,45.0051647 86,38.6409586 C86,35.401814 84.4801724,30.5698206 81.3346167,26.7033357 C78.299848,22.973029 73.694858,20.1734616 70.550974,18.8442866 C64.1484357,16.1374138 40.7835075,5.40288457 33.341005,2.09356374 C25.8985026,-1.21575709 18.0536748,-0.62219078 10.6914169,4.01973584 C3.32915905,8.66166246 -1.92986974e-12,18.2156479 0,22.2837329 Z" id="Path" fill="url(#linearGradient-1)"></path>
        <path d="M44.0385644,32.7913106 L44.0385644,63.7164136 L13,63.7164136 L13,12.8425016 L15.2232274,12 L15.2232274,61.4999959 L42.1136921,61.4999959 L42.1136921,30.6753716 C49.0094866,30.6262716 54.038901,30.7650802 57.2019354,31.0917975 C61.9464869,31.5818733 69.7077725,34.4882455 70.2510541,43.2089409 C70.5650203,48.2486916 68.0345501,52.38702 64.1425217,54.5102908 C66.0041115,54.9392274 73.408259,58.0858033 72.9823456,67.1863082 C72.6639744,73.9889558 68.7714207,78.2608456 61.7511092,80.148412 C57.4235544,81.311971 48.4179385,80.9451463 38.0222777,80.9451463 C37.3808664,79.5177502 37.0610094,78.8031876 37.0627066,78.8014584 C46.9493337,78.8014584 52.2434132,78.8014584 52.944945,78.8014584 C58.4748643,78.8014584 70.495315,78.0935596 70.7448594,67.1863082 C70.9429206,58.5293165 64.3046614,56.8885515 58.9560824,54.9511973 C62.3990597,52.7690068 69.2561544,50.7622904 67.8484089,41.8505552 C66.6740864,34.4165043 58.3850779,33.0717824 52.239644,32.8258011 C51.5243681,32.8258011 48.7906749,32.8143043 44.0385644,32.7913106 Z" id="L" fill="#FFFFFF"></path>
      </g>
    </g>
  </g>
</svg>
